<svg xmlns="http://www.w3.org/2000/svg" width="1280" height="800" viewBox="0 0 1280 800" role="img" aria-label="Battle Cry of Freedom">
  <defs>
    <linearGradient id="g" x1="0%" x2="100%" y1="0%" y2="100%">
      <stop offset="0%" stop-color="#111827"/>
      <stop offset="100%" stop-color="#1a2434"/>
    </linearGradient>
    <linearGradient id="g2" x1="0%" x2="100%" y1="0%" y2="100%">
      <stop offset="0%" stop-color="#9fd3ff" stop-opacity=".8"/>
      <stop offset="100%" stop-color="#b9ff9f" stop-opacity=".65"/>
    </linearGradient>
    <filter id="blur"><feGaussianBlur stdDeviation="30"/></filter>
  </defs>
  <rect width="1280" height="800" fill="url(#g)"/>
  <circle cx="220" cy="180" r="180" fill="#9fd3ff" opacity=".22" filter="url(#blur)"/>
  <circle cx="1080" cy="140" r="140" fill="#b9ff9f" opacity=".18" filter="url(#blur)"/>
  <circle cx="1040" cy="660" r="220" fill="#9fd3ff" opacity=".16" filter="url(#blur)"/>
  <path d="M0 650 C250 560 360 760 640 650 C820 578 982 520 1280 620 L1280 800 L0 800 Z" fill="url(#g2)" opacity=".18"/>
  <rect x="58" y="58" width="1164" height="684" rx="34" fill="none" stroke="rgba(255,255,255,.14)" stroke-width="2"/>
  <g transform="translate(110,120)">
    <text x="0" y="0" fill="white" font-family="Inter,Segoe UI,Arial,sans-serif" font-size="28" font-weight="700" letter-spacing="6" opacity=".72">SETH BYRNES · PORTFOLIO</text>
    <text x="0" y="170" fill="white" font-family="Inter,Segoe UI,Arial,sans-serif" font-size="86" font-weight="800">Battle Cry of Freedom</text>
    <text x="0" y="250" fill="white" font-family="Inter,Segoe UI,Arial,sans-serif" font-size="34" opacity=".78">Flying Squirrel Entertainment · 2022 - 2023</text>
  </g>
  <g opacity=".2">
    <line x1="110" y1="520" x2="1170" y2="520" stroke="white" stroke-width="2"/>
    <line x1="110" y1="560" x2="1170" y2="560" stroke="white" stroke-width="2"/>
    <line x1="110" y1="600" x2="1170" y2="600" stroke="white" stroke-width="2"/>
  </g>
</svg>